<?xml version="1.0" standalone="no"?>
<!DOCTYPE svg PUBLIC "-//W3C//DTD SVG 20010904//EN"
 "http://www.w3.org/TR/2001/REC-SVG-20010904/DTD/svg10.dtd">
<svg version="1.0" xmlns="http://www.w3.org/2000/svg"
 width="890.000000pt" height="338.000000pt" viewBox="0 0 890.000000 338.000000"
 preserveAspectRatio="xMidYMid meet">

<g transform="translate(0.000000,338.000000) scale(0.100000,-0.100000)"
fill="#3d538e" stroke="none">
<path d="M1835 3306 c-1504 -865 -1810 -1045 -1823 -1077 -19 -46 -7 -104 26
-127 15 -10 132 -79 260 -152 l232 -133 0 -487 c0 -451 1 -488 18 -502 33 -28
1410 -818 1427 -818 9 0 30 7 48 16 108 56 1384 798 1395 812 33 43 -2 112
-57 112 -21 0 -236 -119 -706 -391 l-677 -390 -654 377 -654 378 0 403 c0 222
2 403 5 403 3 0 286 -162 629 -361 344 -198 638 -365 654 -371 28 -11 68 9
743 384 763 422 746 411 723 474 -13 37 -1416 848 -1454 840 -14 -2 -322 -176
-684 -385 -600 -346 -662 -380 -680 -368 -12 7 -110 64 -219 127 -108 62 -196
114 -194 116 11 11 1774 1026 1783 1027 6 0 419 -235 918 -523 l906 -523 0
-676 c0 -657 -1 -677 -19 -688 -25 -16 -91 -133 -91 -163 0 -24 63 -137 88
-158 23 -18 172 -16 199 3 34 24 96 142 89 170 -10 39 -75 144 -96 155 -20 10
-20 26 -20 719 l0 708 -22 20 c-31 27 -1909 1110 -1939 1118 -18 4 -56 -13
-154 -69z m759 -1121 c333 -192 606 -352 606 -355 0 -3 -275 -157 -611 -342
l-610 -338 -600 346 c-330 191 -597 349 -594 353 14 13 1190 690 1196 688 4
-1 280 -159 613 -352z m1309 -1527 c7 -21 -4 -38 -23 -38 -23 0 -34 16 -26 35
7 18 43 20 49 3z"/>
<path d="M8264 2165 c-255 -55 -413 -315 -414 -678 0 -389 193 -662 485 -684
254 -20 466 158 534 447 44 186 36 378 -22 550 -68 201 -199 328 -374 365 -82
18 -129 18 -209 0z m253 -176 c100 -48 175 -153 210 -296 23 -94 23 -324 0
-413 -52 -195 -172 -315 -331 -327 -163 -14 -302 94 -368 284 -21 62 -23 85
-23 248 0 146 4 191 18 240 39 126 97 205 190 259 91 53 200 55 304 5z"/>
<path d="M4807 2144 c-4 -4 -7 -299 -7 -655 0 -631 1 -649 19 -659 13 -6 158
-10 403 -10 285 0 387 -3 396 -12 8 -8 12 -60 12 -168 0 -139 2 -159 18 -173
21 -19 64 -22 93 -7 18 10 19 24 19 253 0 260 -1 267 -50 267 -14 0 -31 5 -38
12 -9 9 -12 150 -12 573 0 423 -3 564 -12 573 -7 7 -36 12 -65 12 -41 0 -54
-4 -63 -19 -6 -13 -10 -211 -10 -573 0 -418 -3 -557 -12 -566 -18 -18 -534
-17 -545 1 -4 6 -10 269 -13 582 l-5 570 -60 3 c-34 2 -64 0 -68 -4z"/>
<path d="M5943 2139 c-10 -10 -13 -154 -13 -650 0 -710 -4 -669 69 -669 76 0
75 -3 81 282 l5 253 190 7 c111 3 211 12 241 20 115 32 176 91 226 218 32 82
32 240 0 332 -30 85 -91 156 -164 189 -51 23 -62 24 -338 27 -219 3 -288 0
-297 -9z m585 -171 c50 -34 83 -99 89 -181 9 -111 -28 -193 -107 -237 -42 -24
-55 -25 -223 -28 -129 -3 -182 -1 -192 8 -12 10 -15 51 -15 231 0 197 2 219
18 229 11 7 81 10 203 7 182 -3 187 -3 227 -29z"/>
<path d="M6962 2138 c-5 -8 -12 -138 -15 -313 -8 -376 -32 -582 -88 -753 -24
-71 -40 -92 -74 -92 -51 0 -55 -15 -55 -228 0 -221 5 -242 61 -242 65 0 69 7
69 146 0 69 5 134 10 145 10 18 25 19 353 19 254 0 346 -3 355 -12 8 -8 12
-55 12 -145 0 -146 3 -153 69 -153 58 0 61 11 61 231 0 119 -4 208 -10 220 -7
12 -21 19 -38 19 -16 0 -33 5 -40 12 -9 9 -12 150 -12 573 0 423 -3 564 -12
573 -18 18 -631 17 -646 0z m496 -150 c19 -19 17 -981 -2 -997 -9 -8 -79 -11
-231 -9 -192 3 -219 5 -229 20 -7 13 -5 40 12 105 44 178 68 390 79 686 5 134
10 182 20 193 19 19 332 21 351 2z"/>
</g>
</svg>
